# xmcd CD database file
#
# Track frame offsets:
#	150
#	36107
#	61691
#	76722
#	105807
#	142026
#	164769
#	184094
#	197721
#	222500
#	242932
#	262254
#
# Disc length: 3874 seconds
#
# Revision: 0
# Processed by: cddbd v1.5.1PL0 Copyright (c) Steve Scherf et al.
# Submitted via: CDex 1.51
#
DISCID=ab0f200c
DTITLE=Bill Risby and Louise Perryman - The painter and the bird
DYEAR=1900
DGENRE=New Age
TTITLE0=The first time I ever saw your face
TTITLE1=All in love is fair
TTITLE2=Alfie
TTITLE3=Blackbird
TTITLE4=Unchained melody
TTITLE5=I should've never let you go
TTITLE6=Send in the clowns
TTITLE7=Somewhere
TTITLE8=I can't help falling in love with you
TTITLE9=Something so right
TTITLE10=I've grown accustomed to his face
TTITLE11=What the world needs now is love
EXTD=
EXTT0=
EXTT1=
EXTT2=
EXTT3=
EXTT4=
EXTT5=
EXTT6=
EXTT7=
EXTT8=
EXTT9=
EXTT10=
EXTT11=
PLAYORDER=
